<svg width="189" height="56" viewBox="0 0 189 56" fill="none" xmlns="http://www.w3.org/2000/svg">
<path d="M63.8229 50.366L63.4897 50.848H63.0137V43.1362H63.9657V45.7631C64.061 45.6426 64.2276 45.5221 64.4656 45.4257C64.7036 45.3293 64.9654 45.2811 65.2034 45.2811C65.9413 45.2811 66.5363 45.5462 66.9886 46.0523C67.4408 46.5583 67.6788 47.209 67.6788 47.9802C67.6788 48.7514 67.4408 49.5949 66.9886 50.1009C66.5363 50.607 65.9175 50.8721 65.132 50.8721C64.3466 50.8721 64.6322 50.8239 64.3942 50.7275C64.1562 50.6311 63.9657 50.5106 63.8467 50.3901M63.9657 46.486V49.5949C63.9657 49.6431 64.0848 49.7395 64.3228 49.86C64.5608 49.9804 64.7512 50.0527 64.8702 50.0527C65.5129 50.0527 65.9651 49.9082 66.2507 49.5949C66.5363 49.2816 66.6792 48.7514 66.6792 48.0284C66.6792 47.3054 66.5125 46.9439 66.2031 46.6065C65.8699 46.2691 65.4415 46.1005 64.894 46.1005C64.3466 46.1005 64.6084 46.1486 64.418 46.245C64.2276 46.3414 64.0848 46.4378 64.0134 46.5101M70.7493 51.6674C70.6303 52.0048 70.3684 52.294 69.9638 52.535C69.5592 52.776 69.1307 52.8724 68.6547 52.8724V52.0048C69.0593 52.0048 69.3926 51.9084 69.6782 51.7156C69.9638 51.5228 70.1066 51.3059 70.1066 51.0408C70.1066 50.7757 70.059 50.4624 69.9638 50.1732C69.8686 49.8841 69.7258 49.5226 69.5592 49.1129L68.1073 45.3534H69.0831L70.6541 49.5226L72.0584 45.3534H73.0342L70.7731 51.6674H70.7493ZM79.8654 44.534V50.7516H78.5563V44.534H76.2237V43.3772H82.2694V44.534H79.8416H79.8654ZM86.4347 50.7516L85.911 49.2575H83.4118L82.912 50.7516H81.4839L84.3877 43.2567H84.959L87.8866 50.7516H86.4585H86.4347ZM84.6495 45.5221L83.7689 48.2453H85.5302L84.6495 45.5221ZM93.6466 43.7628L93.123 44.8473C92.8374 44.5581 92.3613 44.4135 91.7187 44.4135C91.076 44.4135 90.6238 44.6786 90.2192 45.1847C89.8383 45.6908 89.6241 46.3655 89.6241 47.1367C89.6241 47.9079 89.8145 48.5586 90.1716 49.0165C90.5286 49.4744 91.0046 49.7154 91.6235 49.7154C92.2423 49.7154 92.8374 49.4744 93.242 48.9683L93.8371 50.0286C93.3134 50.607 92.528 50.8721 91.5045 50.8721C90.481 50.8721 89.6955 50.5347 89.1243 49.86C88.553 49.1852 88.2674 48.2453 88.2674 47.0885C88.2674 45.9318 88.5769 45.0883 89.2195 44.3412C89.8621 43.5941 90.6476 43.2326 91.6235 43.2326C92.5994 43.2326 93.123 43.4013 93.6228 43.7628M97.6215 50.3419L98.0976 49.1611C98.5974 49.5226 99.1211 49.7154 99.6209 49.7154C100.383 49.7154 100.763 49.4503 100.763 48.896C100.763 48.3417 100.668 48.3899 100.502 48.173C100.335 47.9561 99.9541 47.691 99.3829 47.4018C98.8116 47.1126 98.4546 46.8957 98.2404 46.7029C98.05 46.5101 97.8834 46.2932 97.7882 46.0523C97.693 45.7872 97.6215 45.5221 97.6215 45.2088C97.6215 44.6304 97.8358 44.1725 98.2404 43.7869C98.645 43.4013 99.1925 43.2085 99.8351 43.2085C100.478 43.2085 101.287 43.3772 101.692 43.6905L101.311 44.8232C100.859 44.4858 100.383 44.3171 99.8827 44.3171C99.3829 44.3171 99.3591 44.3894 99.1925 44.5581C99.0259 44.7268 98.9544 44.9196 98.9544 45.1847C98.9544 45.6185 99.4305 46.0523 100.335 46.5101C100.811 46.7511 101.168 46.968 101.382 47.1849C101.596 47.3777 101.763 47.6187 101.882 47.8838C102.001 48.1489 102.049 48.4622 102.049 48.7996C102.049 49.4021 101.811 49.884 101.358 50.2696C100.882 50.6552 100.264 50.848 99.4781 50.848C98.6926 50.848 98.169 50.6793 97.6215 50.3178M107.88 48.4381H104.072C104.096 48.8719 104.238 49.2093 104.5 49.4503C104.762 49.6913 105.119 49.8118 105.595 49.8118C106.071 49.8118 106.595 49.6672 106.904 49.3539L107.38 50.3178C106.952 50.6793 106.285 50.848 105.429 50.848C104.572 50.848 103.977 50.607 103.501 50.125C103.025 49.6431 102.787 48.9683 102.787 48.1007C102.787 47.2331 103.048 46.5583 103.572 46.0282C104.096 45.498 104.714 45.2329 105.452 45.2329C106.19 45.2329 106.857 45.4739 107.309 45.9318C107.761 46.3896 108.023 46.9921 108.023 47.7151C108.023 48.4381 107.999 48.1007 107.928 48.414M104.096 47.4982H106.714C106.619 46.7029 106.19 46.3173 105.405 46.3173C104.619 46.3173 104.238 46.7029 104.072 47.4982M113.164 45.7872L112.641 46.727C112.355 46.4378 111.95 46.3173 111.474 46.3173C110.998 46.3173 110.641 46.486 110.356 46.7993C110.094 47.1126 109.951 47.5464 109.951 48.1248C109.951 49.2575 110.475 49.8359 111.546 49.8359C112.617 49.8359 112.402 49.6913 112.76 49.378L113.212 50.366C112.855 50.5829 112.521 50.7516 112.26 50.7998C111.998 50.848 111.665 50.8962 111.308 50.8962C110.475 50.8962 109.832 50.6552 109.356 50.1732C108.88 49.6913 108.642 49.0165 108.642 48.1489C108.642 47.2813 108.904 46.6065 109.427 46.0764C109.951 45.5462 110.665 45.2811 111.569 45.2811C112.474 45.2811 112.736 45.4498 113.188 45.8113M117.639 50.7516V50.2937C117.472 50.4383 117.21 50.5829 116.901 50.6793C116.592 50.7757 116.306 50.848 116.044 50.848C114.806 50.848 114.188 50.1732 114.188 48.8478V45.3293H115.425V48.7514C115.425 49.4503 115.735 49.7877 116.354 49.7877C116.972 49.7877 116.901 49.7154 117.139 49.5708C117.377 49.4262 117.544 49.2575 117.615 49.0647V45.3534H118.853V50.7516H117.615H117.639ZM123.304 46.5342C123.09 46.3896 122.828 46.3173 122.566 46.3173C122.304 46.3173 122.018 46.4619 121.804 46.727C121.59 46.9921 121.471 47.3054 121.471 47.691V50.7757H120.233V45.3775H121.471V45.8836C121.828 45.498 122.28 45.2811 122.852 45.2811C123.423 45.2811 123.613 45.3534 123.827 45.4739L123.304 46.5583V46.5342ZM124.922 50.7516V46.3896H124.232V45.3534H126.184V50.7516H124.922ZM125.565 43.2567C125.755 43.2567 125.922 43.329 126.089 43.4736C126.231 43.6182 126.303 43.7869 126.303 43.9797C126.303 44.1725 126.231 44.3653 126.089 44.4858C125.946 44.6304 125.779 44.7027 125.565 44.7027C125.351 44.7027 125.184 44.6304 125.041 44.4858C124.898 44.3412 124.827 44.1725 124.827 43.9797C124.827 43.7869 124.898 43.5941 125.041 43.4736C125.184 43.329 125.351 43.2567 125.565 43.2567ZM127.826 46.3655H127.207V45.3534H127.826V44.2448L129.064 43.7869V45.3534H130.539V46.3655H129.064V48.7273C129.064 49.1129 129.111 49.378 129.254 49.5467C129.373 49.7154 129.587 49.7877 129.873 49.7877C130.159 49.7877 130.444 49.7154 130.706 49.5467V50.7034C130.42 50.7998 129.992 50.848 129.468 50.848C128.945 50.848 128.516 50.7034 128.231 50.3901C127.945 50.0768 127.802 49.6431 127.802 49.0888V46.3414L127.826 46.3655ZM134.038 51.6192C133.896 51.9807 133.61 52.2699 133.181 52.5109C132.753 52.7519 132.229 52.8724 131.658 52.8724V51.7638C132.61 51.7638 133.086 51.5228 133.086 51.0408C133.086 50.5588 132.943 50.2214 132.682 49.5467L131.016 45.3534H132.301L133.753 49.0888L135.062 45.3534H136.347L134.015 51.6192H134.038Z" fill="black"/>
<path d="M65.2747 36.099C63.8704 35.1592 62.7517 33.9783 61.8949 32.5805C61.5616 32.0262 61.4664 31.4479 61.633 30.8213C61.7759 30.1947 62.1091 29.6886 62.6327 29.3512C63.1802 29.0138 63.7514 28.9174 64.394 29.0861C65.0367 29.2548 65.4889 29.5922 65.8222 30.1465C66.322 30.9418 66.9647 31.6166 67.7977 32.1708C68.726 32.8215 69.6543 33.1589 70.5825 33.1589C71.5108 33.1589 72.6295 32.8215 73.3911 32.0985C74.1766 31.4238 74.5812 30.5803 74.5812 29.5922C74.5812 28.6041 74.248 27.8571 73.6292 27.3751C73.0579 26.9413 71.844 26.4593 69.9399 25.9532C67.5597 25.2784 65.8222 24.5554 64.7511 23.7602C62.8707 22.3865 61.9425 20.4345 61.9425 17.8558C61.9425 15.2772 62.7993 13.6384 64.4893 12.0238C66.1792 10.4332 68.2023 9.61383 70.5825 9.61383C72.9627 9.61383 73.8672 10.0717 75.3191 10.9634C76.7472 11.8551 77.7945 13.06 78.4847 14.5542C78.7704 15.1326 78.7942 15.7351 78.5561 16.3617C78.3419 16.9641 77.9373 17.3979 77.3423 17.663C76.771 17.9281 76.176 17.9522 75.5809 17.7353C74.9859 17.5184 74.5574 17.1087 74.2718 16.5063C73.9862 15.8315 73.4864 15.3013 72.8199 14.8916C72.1535 14.4819 71.3918 14.2891 70.5825 14.2891C69.7733 14.2891 68.5356 14.6265 67.7501 15.3495C66.9884 16.0243 66.5838 16.8677 66.5838 17.8558C66.5838 18.8439 66.8932 19.5669 67.4883 20.0248C68.0595 20.4345 69.2734 20.8923 71.1776 21.4225C73.5816 22.0973 75.3191 22.8444 76.3902 23.6156C78.2705 25.0133 79.1988 27.0136 79.1988 29.5922C79.1988 32.1708 78.3657 33.8096 76.6758 35.4243C74.9859 37.0148 72.9389 37.8342 70.5825 37.8342C68.2261 37.8342 66.9646 37.2558 65.2747 36.1231V36.099ZM95.0746 9.61383C98.8353 9.61383 102.072 10.9875 104.762 13.7589C107.452 16.5063 108.784 19.832 108.784 23.7361C108.784 27.6402 107.452 30.9418 104.762 33.6891C102.072 36.4364 98.8591 37.8101 95.0746 37.8101C91.2901 37.8101 88.0531 36.4364 85.3873 33.6891C82.6977 30.9418 81.3648 27.6161 81.3648 23.7361C81.3648 19.8561 82.6977 16.5063 85.3873 13.7589C88.0531 10.9875 91.2901 9.61383 95.0746 9.61383ZM95.0746 33.1348C97.5738 33.1348 99.716 32.219 101.501 30.3875C103.286 28.5318 104.167 26.3147 104.167 23.7361C104.167 21.1574 103.286 18.9162 101.501 17.0605C99.716 15.229 97.5738 14.3132 95.0746 14.3132C92.5754 14.3132 90.4333 15.229 88.6481 17.0605C86.863 18.9162 85.9823 21.1333 85.9823 23.7361C85.9823 26.3388 86.863 28.5318 88.6481 30.3875C90.4333 32.219 92.5754 33.1348 95.0746 33.1348ZM124.97 14.3132C122.471 14.3132 120.328 15.229 118.543 17.0605C116.758 18.9162 115.877 21.1333 115.877 23.7361C115.877 26.3388 116.758 28.5318 118.543 30.3875C120.328 32.219 122.471 33.1348 124.97 33.1348C127.469 33.1348 130.468 31.8334 132.301 29.2548C132.658 28.7487 133.158 28.4354 133.8 28.339C133.943 28.3149 134.086 28.2908 134.229 28.2908C134.681 28.2908 135.109 28.4354 135.514 28.7487C136.038 29.1102 136.347 29.6163 136.442 30.267C136.466 30.4116 136.49 30.5562 136.49 30.7008C136.49 31.1587 136.347 31.5925 136.038 32.0021C133.3 35.8821 129.587 37.8342 124.946 37.8342C120.305 37.8342 117.924 36.4605 115.259 33.7132C112.569 30.9659 111.236 27.6402 111.236 23.7602C111.236 19.8802 112.569 16.5304 115.259 13.783C117.924 11.0116 121.161 9.63793 124.946 9.63793C128.73 9.63793 133.277 11.59 136.038 15.47C136.323 15.8797 136.49 16.3376 136.49 16.7954C136.49 17.2533 136.49 17.0605 136.442 17.2292C136.347 17.8558 136.038 18.3619 135.514 18.7475C135.109 19.0367 134.681 19.2054 134.229 19.2054C133.776 19.2054 133.967 19.2054 133.8 19.1572C133.158 19.0608 132.658 18.7475 132.301 18.2173C130.468 15.6387 128.016 14.3614 124.97 14.3614V14.3132ZM143.035 0.0945854C143.535 0.0945854 144.011 0.215082 144.487 0.480175C144.963 0.745268 145.32 1.10676 145.606 1.58875C145.868 2.07073 146.011 2.57682 146.011 3.08291C146.011 3.58899 145.868 4.09508 145.606 4.57707C145.344 5.05905 144.987 5.42055 144.511 5.68564C144.035 5.95073 143.559 6.09533 143.035 6.09533C142.512 6.09533 142.036 5.97483 141.56 5.68564C141.084 5.39645 140.727 5.05905 140.465 4.57707C140.203 4.09508 140.06 3.61309 140.06 3.08291C140.06 2.55272 140.179 2.07073 140.465 1.58875C140.727 1.10676 141.107 0.745268 141.583 0.480175C142.059 0.215082 142.535 0.0945854 143.035 0.0945854ZM143.035 9.61383C143.678 9.61383 144.225 9.85483 144.654 10.3127C145.106 10.7706 145.344 11.3249 145.344 11.9515V35.4725C145.344 36.1231 145.106 36.6774 144.654 37.1353C144.202 37.5932 143.654 37.8101 143.035 37.8101C142.416 37.8101 141.845 37.5932 141.417 37.1353C140.965 36.6774 140.727 36.1472 140.727 35.4725V11.9515C140.727 11.3008 140.965 10.7465 141.417 10.3127C141.869 9.85483 142.416 9.61383 143.035 9.61383ZM162.22 0.0463867C162.862 0.0463867 163.41 0.28738 163.838 0.745268C164.29 1.20316 164.528 1.73334 164.528 2.40812C164.528 3.08291 164.29 3.61309 163.838 4.07098C163.386 4.52887 162.838 4.76986 162.22 4.76986C160.125 4.76986 158.626 5.17955 157.769 5.99893C157.007 6.72191 156.602 7.95098 156.531 9.61383H159.149C159.792 9.61383 160.339 9.85483 160.768 10.3127C161.22 10.7706 161.458 11.3249 161.458 11.9515C161.458 12.5781 161.22 13.1564 160.768 13.5902C160.315 14.0481 159.768 14.2891 159.149 14.2891H156.531V35.4725C156.531 36.1231 156.293 36.6774 155.841 37.1353C155.388 37.5932 154.841 37.8101 154.222 37.8101C153.603 37.8101 153.032 37.5932 152.604 37.1353C152.151 36.6774 151.913 36.1472 151.913 35.4725V14.2891H151.295C150.652 14.2891 150.104 14.0481 149.628 13.5902C149.176 13.1323 148.962 12.5781 148.962 11.9515C148.962 11.3249 149.176 10.7465 149.628 10.3127C150.081 9.85483 150.628 9.61383 151.295 9.61383H151.937C152.009 6.57731 152.913 4.23968 154.603 2.57682C156.364 0.889865 158.911 0.0463867 162.243 0.0463867H162.22ZM188.64 11.0839C188.759 11.3731 188.83 11.6864 188.83 11.9756C188.83 12.2648 188.759 12.5781 188.64 12.8672L174.716 45.9316C174.311 46.8715 173.621 47.3534 172.597 47.3534C171.574 47.3534 171.978 47.3052 171.717 47.1847C171.122 46.9438 170.717 46.51 170.455 45.9075C170.336 45.6183 170.288 45.3291 170.288 45.0399C170.288 44.7507 170.36 44.4374 170.479 44.1241L174.097 35.4966L164.576 12.8913C164.433 12.5781 164.386 12.2648 164.386 11.9756C164.386 11.6864 164.433 11.3731 164.552 11.108C164.79 10.5055 165.219 10.0958 165.814 9.83073C166.099 9.71023 166.409 9.63793 166.694 9.63793C166.98 9.63793 167.289 9.68613 167.551 9.80663C168.146 10.0476 168.551 10.4814 168.813 11.0598L176.596 29.544L184.355 11.0598C184.593 10.4814 185.022 10.0476 185.617 9.80663C185.902 9.68613 186.188 9.63793 186.474 9.63793C186.759 9.63793 187.069 9.71023 187.378 9.83073C187.973 10.0717 188.378 10.5055 188.616 11.108L188.64 11.0839Z" fill="url(#paint0_linear_1094_9040)"/>
<path d="M15.8147 8.48088C9.17399 9.22796 4.88965 15.3974 5.10387 22.6995C5.31809 29.9534 5.4609 37.9303 9.48341 44.2443C13.1727 50.0282 20.4085 52.5104 26.8826 53.0647C27.4776 53.1129 28.0488 53.137 28.6439 53.137C32.0238 53.137 35.3084 52.1971 37.879 49.9077C40.2592 47.7869 41.9729 44.9191 42.8536 41.8585C43.1154 40.9668 43.3058 40.051 43.401 39.1353C44.1865 32.3633 38.7835 25.3745 38.7835 25.3745L39.7117 20.2896L39.4261 16.2409C39.4261 16.2409 38.4979 12.6501 38.2598 12.4332C38.0218 12.2163 24.1691 8.33628 23.8835 8.28808C23.5979 8.23989 15.8385 8.50498 15.8385 8.50498L15.8147 8.48088Z" fill="black"/>
<path d="M28.0013 53.0406H29.953C30.5481 54.9203 31.6906 55.5469 32.2618 55.4023C33.1187 55.1854 33.0235 54.1251 32.8807 52.8478C33.5709 54.4142 34.285 55.5469 34.999 55.4505C35.6893 55.3541 35.6655 54.4624 35.7607 54.125C36.689 55.0408 37.3792 54.8962 37.6172 54.6793C37.9981 54.3178 38.2123 53.1852 35.7369 50.4379C38.4027 47.6664 40.1878 44.3166 40.6877 40.2197C44.8054 40.5571 48.5423 39.8582 51.3747 35.7854C51.9221 34.9902 51.3985 33.8816 50.4464 33.8334H50.3274C52.5172 32.6525 54.0405 31.062 54.5641 28.7243C54.7308 27.9531 54.0643 27.2543 53.3026 27.4471C52.9932 27.5194 52.6838 27.5676 52.3268 27.5435C54.5879 25.5914 55.9447 23.2779 55.421 20.5064C55.2306 19.4943 54.0167 19.1087 53.2788 19.8317C49.8038 23.2056 45.8527 24.8202 41.4493 24.8684C40.7829 24.8684 40.1878 24.4105 40.0212 23.7599C40.0212 23.6876 39.9974 23.6153 39.9736 23.543C39.9022 23.1574 39.9736 22.7718 40.0926 22.4103C41.5207 18.5785 41.6159 14.6021 39.331 10.4088C40.8305 7.90247 41.3541 5.32384 40.9019 2.69701C40.8067 2.21503 40.2116 2.04633 39.9022 2.43192C38.2599 4.43217 35.9511 5.80583 33.3805 6.36012C31.5478 5.68533 29.8578 5.25154 28.0489 5.32384C26.24 5.25154 24.55 5.68533 22.7173 6.36012C20.1467 5.80583 17.8141 4.43217 16.1956 2.43192C15.8862 2.04633 15.2673 2.21503 15.1959 2.69701C14.7437 5.32384 15.2673 7.90247 16.7668 10.4088C14.4818 14.6021 14.6009 18.5785 16.0052 22.4103C16.148 22.7718 16.1956 23.1815 16.1242 23.543C16.1242 23.6153 16.1004 23.6876 16.0766 23.7599C15.9338 24.4346 15.3387 24.8684 14.6485 24.8684C10.2451 24.8202 6.29401 23.2056 2.81894 19.8317C2.08109 19.1328 0.867193 19.5184 0.676778 20.5064C0.129336 23.2779 1.48604 25.5914 3.77102 27.5435C3.41399 27.5435 3.10457 27.5435 2.79514 27.4471C2.03348 27.2543 1.36703 27.9531 1.53364 28.7243C2.05728 31.062 3.5806 32.6525 5.77037 33.8334H5.65136C4.69929 33.8816 4.15185 34.9902 4.72309 35.7854C7.57931 39.8582 11.2924 40.533 15.4101 40.2197C15.91 44.3407 17.6951 47.6664 20.3609 50.4379C17.9093 53.1852 18.0997 54.3178 18.4806 54.6793C18.7186 54.8962 19.4088 55.0408 20.3371 54.125C20.4085 54.4624 20.4085 55.3541 21.0988 55.4505C21.8128 55.5469 22.5269 54.4142 23.2171 52.8478C23.0505 54.101 22.9553 55.1613 23.836 55.4023C24.4072 55.5469 25.5497 54.9444 26.1447 53.0406H28.1203H28.0013Z" fill="url(#paint1_linear_1094_9040)"/>
<path d="M28.001 17.0606C29.8338 12.6022 31.7379 11.5659 34.0705 11.6382C35.8319 11.6864 37.379 12.8432 38.1882 14.3856C39.2831 16.4822 39.2117 19.3018 37.9026 21.3021C36.8791 22.8444 35.2606 23.8325 33.5707 24.4591C32.3568 24.917 31.0715 25.2062 29.7862 25.3749C28.6199 25.5436 27.4298 25.5436 26.2397 25.3749C24.9544 25.1821 23.6691 24.917 22.4552 24.4591C20.7653 23.8325 19.123 22.8444 18.1233 21.3021C16.8142 19.3018 16.719 16.5063 17.8377 14.3856C18.6469 12.8432 20.2178 11.6864 21.9554 11.6382C24.3118 11.5659 26.1921 12.6022 28.0248 17.0365L28.001 17.0606Z" fill="white"/>
<path d="M22.503 19.9762C23.8438 19.9762 24.9308 18.7893 24.9308 17.3252C24.9308 15.8612 23.8438 14.6743 22.503 14.6743C21.1622 14.6743 20.0752 15.8612 20.0752 17.3252C20.0752 18.7893 21.1622 19.9762 22.503 19.9762Z" fill="black"/>
<path d="M23.3126 17.5908C23.7201 17.5908 24.0504 17.1808 24.0504 16.6751C24.0504 16.1693 23.7201 15.7593 23.3126 15.7593C22.9051 15.7593 22.5747 16.1693 22.5747 16.6751C22.5747 17.1808 22.9051 17.5908 23.3126 17.5908Z" fill="white"/>
<path d="M33.4756 19.9762C34.8165 19.9762 35.9034 18.7893 35.9034 17.3252C35.9034 15.8612 34.8165 14.6743 33.4756 14.6743C32.1348 14.6743 31.0479 15.8612 31.0479 17.3252C31.0479 18.7893 32.1348 19.9762 33.4756 19.9762Z" fill="black"/>
<path d="M32.69 17.5908C33.0975 17.5908 33.4279 17.1808 33.4279 16.6751C33.4279 16.1693 33.0975 15.7593 32.69 15.7593C32.2825 15.7593 31.9521 16.1693 31.9521 16.6751C31.9521 17.1808 32.2825 17.5908 32.69 17.5908Z" fill="white"/>
<path d="M29.5962 20.8197C29.5962 19.9281 28.8821 19.2051 28.0015 19.2051C27.1208 19.2051 26.4067 19.9281 26.4067 20.8197C26.4067 21.7114 27.1208 23.9527 28.0015 23.9527C28.8821 23.9527 29.5962 21.7114 29.5962 20.8197Z" fill="black"/>
<defs>
<linearGradient id="paint0_linear_1094_9040" x1="61.3923" y1="23.7062" x2="195.814" y2="23.7062" gradientUnits="userSpaceOnUse">
<stop stop-color="#0254B7"/>
<stop offset="1" stop-color="#09B9F0"/>
</linearGradient>
<linearGradient id="paint1_linear_1094_9040" x1="0.486363" y1="28.8448" x2="55.4924" y2="28.8448" gradientUnits="userSpaceOnUse">
<stop stop-color="#0254B7"/>
<stop offset="1" stop-color="#09B9F0"/>
</linearGradient>
</defs>
</svg>
