<svg width="1277" height="280" viewBox="0 0 1277 280" fill="none" xmlns="http://www.w3.org/2000/svg">
<path d="M128.672 355.781C102.109 355.781 79.4531 351.328 60.7031 342.422C41.9531 333.359 27.5 320.469 17.3438 303.75C7.1875 287.031 1.40625 267.031 0 243.75H46.4062C47.3438 257.812 50.8594 270.234 56.9531 281.016C63.0469 291.797 72.0312 300.312 83.9062 306.562C95.9375 312.812 111.016 315.938 129.141 315.938C144.609 315.938 157.891 313.75 168.984 309.375C180.234 305 188.828 298.516 194.766 289.922C200.859 281.328 203.906 270.938 203.906 258.75C203.906 246.719 200.938 236.797 195 228.984C189.219 221.172 180.625 215 169.219 210.469C157.812 205.781 142.812 201.797 124.219 198.516C98.2812 194.141 77.1094 188.438 60.7031 181.406C44.4531 174.375 32.1094 164.844 23.6719 152.812C15.3906 140.625 11.25 125.078 11.25 106.172C11.25 85.8594 15.7812 68.2812 24.8438 53.4375C33.9062 38.4375 47.0312 26.875 64.2188 18.75C81.5625 10.4688 102.266 6.32812 126.328 6.32812C151.172 6.32812 172.344 10.625 189.844 19.2188C207.5 27.8125 221.094 39.8438 230.625 55.3125C240.312 70.7812 245.859 88.9062 247.266 109.688H200.859C200.078 97.1875 196.641 86.1719 190.547 76.6406C184.609 66.9531 176.094 59.4531 165 54.1406C153.906 48.8281 140.625 46.1719 125.156 46.1719C110.625 46.1719 98.2031 48.5156 87.8906 53.2031C77.5781 57.7344 69.6875 64.2188 64.2188 72.6562C58.9062 81.0938 56.25 90.8594 56.25 101.953C56.25 112.422 58.75 121.016 63.75 127.734C68.9062 134.453 76.7188 139.922 87.1875 144.141C97.8125 148.359 112.266 152.188 130.547 155.625C157.734 160.625 179.922 166.797 197.109 174.141C214.297 181.328 227.5 191.406 236.719 204.375C245.938 217.188 250.547 233.984 250.547 254.766C250.547 276.328 245.625 294.688 235.781 309.844C225.938 325 211.875 336.484 193.594 344.297C175.312 351.953 153.672 355.781 128.672 355.781ZM400.781 355.312C377.969 355.312 357.422 350.078 339.141 339.609C321.016 328.984 306.797 313.984 296.484 294.609C286.328 275.234 281.25 252.891 281.25 227.578C281.25 202.109 286.328 179.688 296.484 160.312C306.641 140.938 320.781 125.938 338.906 115.312C357.188 104.688 377.812 99.375 400.781 99.375C424.062 99.375 444.688 104.688 462.656 115.312C480.781 125.938 494.844 140.938 504.844 160.312C515 179.531 520.078 201.953 520.078 227.578C520.078 253.047 514.922 275.469 504.609 294.844C494.453 314.219 480.312 329.141 462.188 339.609C444.219 350.078 423.75 355.312 400.781 355.312ZM400.781 318.984C415.312 318.984 428.281 315.312 439.688 307.969C451.094 300.625 460 290.156 466.406 276.562C472.969 262.812 476.25 246.484 476.25 227.578C476.25 208.672 473.047 192.344 466.641 178.594C460.234 164.844 451.328 154.297 439.922 146.953C428.516 139.609 415.469 135.938 400.781 135.938C386.094 135.938 373.047 139.609 361.641 146.953C350.234 154.297 341.25 164.844 334.688 178.594C328.281 192.344 325.078 208.672 325.078 227.578C325.078 246.328 328.281 262.578 334.688 276.328C341.25 290.078 350.234 300.625 361.641 307.969C373.203 315.312 386.25 318.984 400.781 318.984ZM667.969 355.547C645.312 355.547 624.922 350.547 606.797 340.547C588.828 330.547 574.766 316.016 564.609 296.953C554.453 277.734 549.375 254.766 549.375 228.047C549.375 201.172 554.375 178.125 564.375 158.906C574.531 139.531 588.516 124.766 606.328 114.609C624.141 104.453 644.531 99.375 667.5 99.375C688.125 99.375 706.25 103.594 721.875 112.031C737.5 120.469 749.844 131.953 758.906 146.484C768.125 161.016 773.906 177.344 776.25 195.469H734.062C732.188 183.906 728.438 173.672 722.812 164.766C717.344 155.703 709.922 148.594 700.547 143.438C691.328 138.125 680.391 135.469 667.734 135.469C652.422 135.469 639.141 139.219 627.891 146.719C616.641 154.062 607.969 164.688 601.875 178.594C595.781 192.344 592.734 208.594 592.734 227.344C592.734 246.094 595.703 262.422 601.641 276.328C607.734 290.078 616.484 300.703 627.891 308.203C639.297 315.547 652.656 319.219 667.969 319.219C680.156 319.219 690.781 316.797 699.844 311.953C709.062 307.109 716.484 300.469 722.109 292.031C727.734 283.594 731.719 273.906 734.062 262.969H776.25C773.438 280.781 767.422 296.719 758.203 310.781C749.141 324.688 736.875 335.625 721.406 343.594C706.094 351.562 688.281 355.547 667.969 355.547ZM838.125 66.7969C832.812 66.7969 828.047 65.5469 823.828 63.0469C819.609 60.5469 816.25 57.1875 813.75 52.9688C811.406 48.75 810.234 44.0625 810.234 38.9062C810.234 33.5937 811.406 28.8281 813.75 24.6094C816.25 20.3906 819.609 17.0313 823.828 14.5312C828.047 12.0312 832.812 10.7812 838.125 10.7812C843.438 10.7812 848.203 12.0312 852.422 14.5312C856.641 17.0313 859.922 20.3906 862.266 24.6094C864.766 28.8281 866.016 33.5937 866.016 38.9062C866.016 44.0625 864.766 48.75 862.266 52.9688C859.922 57.1875 856.641 60.5469 852.422 63.0469C848.203 65.5469 843.438 66.7969 838.125 66.7969ZM816.562 349.922V104.766H859.922V349.922H816.562ZM1010.86 0C1014.77 0 1018.91 0.234375 1023.28 0.703125C1027.66 1.17188 1031.95 1.875 1036.17 2.8125H1036.64V37.9688C1031.17 36.7188 1025.31 36.0938 1019.06 36.0938C1005.31 36.0938 995.391 39.4531 989.297 46.1719C983.359 52.8906 980.391 62.1875 980.391 74.0625V105H1036.64V142.031H980.391V349.922H937.031V142.031H890.625V105H937.031V73.8281C937.031 59.2969 939.609 46.5625 944.766 35.625C950.078 24.5313 958.203 15.8594 969.141 9.60938C980.078 3.20313 993.984 0 1010.86 0ZM1065 441.094V405.469H1080.47C1094.06 405.469 1104.84 402.969 1112.81 397.969C1120.94 392.969 1127.42 384.609 1132.27 372.891L1141.17 351.328L1045.08 104.766H1089.61L1145.39 258.281C1150.39 272.188 1155.7 288.125 1161.33 306.094H1162.73C1167.73 288.281 1172.66 272.344 1177.5 258.281L1232.11 104.766H1276.88L1170 383.906C1162.81 402.656 1152.19 416.875 1138.12 426.562C1124.22 436.25 1105 441.094 1080.47 441.094H1065Z" fill="white"/>
</svg>
